<mxfile host="app.diagrams.net" modified="2023-01-05T03:58:51.689Z" agent="5.0 (Windows NT 10.0; Win64; x64) AppleWebKit/537.36 (KHTML, like Gecko) Chrome/108.0.0.0 Safari/537.36" version="20.8.1" etag="5WIJuVK8Fy3wIXXi3log" type="github" pages="2">
  <diagram id="DPO4XS-6EMBhYLj-GZPu" name="2 profile">
    <mxGraphModel dx="1674" dy="796" grid="1" gridSize="10" guides="1" tooltips="1" connect="1" arrows="1" fold="1" page="1" pageScale="1" pageWidth="850" pageHeight="1100" math="0" shadow="0">
      <root>
        <mxCell id="0" />
        <mxCell id="1" parent="0" />
        <mxCell id="NvTo4BpGLUiUqA6QtgEW-8" style="edgeStyle=orthogonalEdgeStyle;rounded=0;orthogonalLoop=1;jettySize=auto;html=1;entryX=0;entryY=0.5;entryDx=0;entryDy=0;entryPerimeter=0;" edge="1" parent="1" source="NvTo4BpGLUiUqA6QtgEW-2" target="NvTo4BpGLUiUqA6QtgEW-4">
          <mxGeometry relative="1" as="geometry" />
        </mxCell>
        <mxCell id="NvTo4BpGLUiUqA6QtgEW-2" value="" style="points=[[0.145,0.145,0],[0.5,0,0],[0.855,0.145,0],[1,0.5,0],[0.855,0.855,0],[0.5,1,0],[0.145,0.855,0],[0,0.5,0]];shape=mxgraph.bpmn.event;html=1;verticalLabelPosition=bottom;labelBackgroundColor=#ffffff;verticalAlign=top;align=center;perimeter=ellipsePerimeter;outlineConnect=0;aspect=fixed;outline=standard;symbol=general;" vertex="1" parent="1">
          <mxGeometry x="50" y="360" width="50" height="50" as="geometry" />
        </mxCell>
        <mxCell id="NvTo4BpGLUiUqA6QtgEW-3" value="Nhận thông tin &lt;br&gt;đăng ký học là rein" style="text;html=1;align=center;verticalAlign=middle;resizable=0;points=[];autosize=1;strokeColor=none;fillColor=none;" vertex="1" parent="1">
          <mxGeometry x="15" y="420" width="120" height="40" as="geometry" />
        </mxCell>
        <mxCell id="NvTo4BpGLUiUqA6QtgEW-9" style="edgeStyle=orthogonalEdgeStyle;rounded=0;orthogonalLoop=1;jettySize=auto;html=1;entryX=0;entryY=0.5;entryDx=0;entryDy=0;entryPerimeter=0;" edge="1" parent="1" source="NvTo4BpGLUiUqA6QtgEW-4" target="NvTo4BpGLUiUqA6QtgEW-5">
          <mxGeometry relative="1" as="geometry" />
        </mxCell>
        <mxCell id="NvTo4BpGLUiUqA6QtgEW-12" value="Chính xác" style="edgeLabel;html=1;align=center;verticalAlign=middle;resizable=0;points=[];" vertex="1" connectable="0" parent="NvTo4BpGLUiUqA6QtgEW-9">
          <mxGeometry x="-0.2" y="1" relative="1" as="geometry">
            <mxPoint as="offset" />
          </mxGeometry>
        </mxCell>
        <mxCell id="NvTo4BpGLUiUqA6QtgEW-10" style="edgeStyle=orthogonalEdgeStyle;rounded=0;orthogonalLoop=1;jettySize=auto;html=1;entryX=0.5;entryY=0;entryDx=0;entryDy=0;entryPerimeter=0;" edge="1" parent="1" source="NvTo4BpGLUiUqA6QtgEW-4" target="NvTo4BpGLUiUqA6QtgEW-2">
          <mxGeometry relative="1" as="geometry">
            <Array as="points">
              <mxPoint x="225" y="270" />
              <mxPoint x="75" y="270" />
            </Array>
          </mxGeometry>
        </mxCell>
        <mxCell id="NvTo4BpGLUiUqA6QtgEW-11" value="Thông tin chưa chính xác" style="edgeLabel;html=1;align=center;verticalAlign=middle;resizable=0;points=[];" vertex="1" connectable="0" parent="NvTo4BpGLUiUqA6QtgEW-10">
          <mxGeometry x="-0.6061" y="-1" relative="1" as="geometry">
            <mxPoint as="offset" />
          </mxGeometry>
        </mxCell>
        <mxCell id="NvTo4BpGLUiUqA6QtgEW-4" value="Kiểm tra thông tin trên TMS" style="points=[[0.25,0.25,0],[0.5,0,0],[0.75,0.25,0],[1,0.5,0],[0.75,0.75,0],[0.5,1,0],[0.25,0.75,0],[0,0.5,0]];shape=mxgraph.bpmn.gateway2;html=1;verticalLabelPosition=bottom;labelBackgroundColor=#ffffff;verticalAlign=top;align=center;perimeter=rhombusPerimeter;outlineConnect=0;outline=none;symbol=none;" vertex="1" parent="1">
          <mxGeometry x="200" y="360" width="50" height="50" as="geometry" />
        </mxCell>
        <mxCell id="NvTo4BpGLUiUqA6QtgEW-13" value="Chưa có" style="edgeStyle=orthogonalEdgeStyle;rounded=0;orthogonalLoop=1;jettySize=auto;html=1;entryX=0.5;entryY=1;entryDx=0;entryDy=0;entryPerimeter=0;" edge="1" parent="1" source="NvTo4BpGLUiUqA6QtgEW-5" target="NvTo4BpGLUiUqA6QtgEW-7">
          <mxGeometry relative="1" as="geometry" />
        </mxCell>
        <mxCell id="NvTo4BpGLUiUqA6QtgEW-14" value="Đã có" style="edgeStyle=orthogonalEdgeStyle;rounded=0;orthogonalLoop=1;jettySize=auto;html=1;entryX=0.5;entryY=0;entryDx=0;entryDy=0;entryPerimeter=0;" edge="1" parent="1" source="NvTo4BpGLUiUqA6QtgEW-5" target="NvTo4BpGLUiUqA6QtgEW-6">
          <mxGeometry relative="1" as="geometry" />
        </mxCell>
        <mxCell id="NvTo4BpGLUiUqA6QtgEW-5" value="Kiểm tra tài khoản trên Litmos" style="points=[[0.25,0.25,0],[0.5,0,0],[0.75,0.25,0],[1,0.5,0],[0.75,0.75,0],[0.5,1,0],[0.25,0.75,0],[0,0.5,0]];shape=mxgraph.bpmn.gateway2;html=1;verticalLabelPosition=bottom;labelBackgroundColor=#ffffff;verticalAlign=top;align=center;perimeter=rhombusPerimeter;outlineConnect=0;outline=none;symbol=none;" vertex="1" parent="1">
          <mxGeometry x="375" y="360" width="50" height="50" as="geometry" />
        </mxCell>
        <mxCell id="NvTo4BpGLUiUqA6QtgEW-17" value="Chưa có lịch sử" style="edgeStyle=orthogonalEdgeStyle;rounded=0;orthogonalLoop=1;jettySize=auto;html=1;entryX=0;entryY=0.5;entryDx=0;entryDy=0;entryPerimeter=0;" edge="1" parent="1" source="NvTo4BpGLUiUqA6QtgEW-6" target="NvTo4BpGLUiUqA6QtgEW-16">
          <mxGeometry relative="1" as="geometry" />
        </mxCell>
        <mxCell id="NvTo4BpGLUiUqA6QtgEW-18" value="Đã có lịch sử học" style="edgeStyle=orthogonalEdgeStyle;rounded=0;orthogonalLoop=1;jettySize=auto;html=1;entryX=0.5;entryY=0;entryDx=0;entryDy=0;entryPerimeter=0;" edge="1" parent="1" source="NvTo4BpGLUiUqA6QtgEW-6" target="NvTo4BpGLUiUqA6QtgEW-15">
          <mxGeometry relative="1" as="geometry" />
        </mxCell>
        <mxCell id="NvTo4BpGLUiUqA6QtgEW-6" value="Kiểm tra kết quả học trên Litmos" style="points=[[0.25,0.25,0],[0.5,0,0],[0.75,0.25,0],[1,0.5,0],[0.75,0.75,0],[0.5,1,0],[0.25,0.75,0],[0,0.5,0]];shape=mxgraph.bpmn.gateway2;html=1;verticalLabelPosition=bottom;labelBackgroundColor=#ffffff;verticalAlign=top;align=center;perimeter=rhombusPerimeter;outlineConnect=0;outline=none;symbol=none;" vertex="1" parent="1">
          <mxGeometry x="375" y="500" width="50" height="50" as="geometry" />
        </mxCell>
        <mxCell id="NvTo4BpGLUiUqA6QtgEW-20" style="edgeStyle=orthogonalEdgeStyle;rounded=0;orthogonalLoop=1;jettySize=auto;html=1;entryX=0.5;entryY=0;entryDx=0;entryDy=0;entryPerimeter=0;" edge="1" parent="1" source="NvTo4BpGLUiUqA6QtgEW-7" target="NvTo4BpGLUiUqA6QtgEW-19">
          <mxGeometry relative="1" as="geometry" />
        </mxCell>
        <mxCell id="NvTo4BpGLUiUqA6QtgEW-7" value="- Tạo tài khoản&lt;br&gt;- gán team AD Candidate&lt;br&gt;- Cập nhật LitmosID" style="points=[[0.25,0,0],[0.5,0,0],[0.75,0,0],[1,0.25,0],[1,0.5,0],[1,0.75,0],[0.75,1,0],[0.5,1,0],[0.25,1,0],[0,0.75,0],[0,0.5,0],[0,0.25,0]];shape=mxgraph.bpmn.task;whiteSpace=wrap;rectStyle=rounded;size=10;html=1;taskMarker=abstract;" vertex="1" parent="1">
          <mxGeometry x="327.5" y="230" width="145" height="60" as="geometry" />
        </mxCell>
        <mxCell id="NvTo4BpGLUiUqA6QtgEW-22" style="edgeStyle=orthogonalEdgeStyle;rounded=0;orthogonalLoop=1;jettySize=auto;html=1;entryX=0.5;entryY=1;entryDx=0;entryDy=0;entryPerimeter=0;" edge="1" parent="1" source="NvTo4BpGLUiUqA6QtgEW-15" target="NvTo4BpGLUiUqA6QtgEW-19">
          <mxGeometry relative="1" as="geometry" />
        </mxCell>
        <mxCell id="NvTo4BpGLUiUqA6QtgEW-15" value="- &quot;archive&quot; tài khoản cũ&lt;br&gt;- Tạo tài khoản mới&lt;br&gt;- gán team AD Candidate (tk mới)&lt;br&gt;- Cập nhật LitmosID" style="points=[[0.25,0,0],[0.5,0,0],[0.75,0,0],[1,0.25,0],[1,0.5,0],[1,0.75,0],[0.75,1,0],[0.5,1,0],[0.25,1,0],[0,0.75,0],[0,0.5,0],[0,0.25,0]];shape=mxgraph.bpmn.task;whiteSpace=wrap;rectStyle=rounded;size=10;html=1;taskMarker=abstract;" vertex="1" parent="1">
          <mxGeometry x="287.5" y="660" width="225" height="80" as="geometry" />
        </mxCell>
        <mxCell id="NvTo4BpGLUiUqA6QtgEW-21" style="edgeStyle=orthogonalEdgeStyle;rounded=0;orthogonalLoop=1;jettySize=auto;html=1;" edge="1" parent="1" source="NvTo4BpGLUiUqA6QtgEW-16" target="NvTo4BpGLUiUqA6QtgEW-19">
          <mxGeometry relative="1" as="geometry" />
        </mxCell>
        <mxCell id="NvTo4BpGLUiUqA6QtgEW-16" value="- Active&amp;nbsp; (cập nhật LitmosID nếu sai)" style="points=[[0.25,0,0],[0.5,0,0],[0.75,0,0],[1,0.25,0],[1,0.5,0],[1,0.75,0],[0.75,1,0],[0.5,1,0],[0.25,1,0],[0,0.75,0],[0,0.5,0],[0,0.25,0]];shape=mxgraph.bpmn.task;whiteSpace=wrap;rectStyle=rounded;size=10;html=1;taskMarker=abstract;" vertex="1" parent="1">
          <mxGeometry x="580" y="495" width="145" height="60" as="geometry" />
        </mxCell>
        <mxCell id="NvTo4BpGLUiUqA6QtgEW-19" value="Phản hồi email" style="points=[[0.145,0.145,0],[0.5,0,0],[0.855,0.145,0],[1,0.5,0],[0.855,0.855,0],[0.5,1,0],[0.145,0.855,0],[0,0.5,0]];shape=mxgraph.bpmn.event;html=1;verticalLabelPosition=bottom;labelBackgroundColor=#ffffff;verticalAlign=top;align=center;perimeter=ellipsePerimeter;outlineConnect=0;aspect=fixed;outline=end;symbol=terminate2;" vertex="1" parent="1">
          <mxGeometry x="950" y="360" width="50" height="50" as="geometry" />
        </mxCell>
      </root>
    </mxGraphModel>
  </diagram>
  <diagram id="6DlRw8bb4zmcJ_bJIPaH" name="1 profile">
    <mxGraphModel dx="1674" dy="796" grid="1" gridSize="10" guides="1" tooltips="1" connect="1" arrows="1" fold="1" page="1" pageScale="1" pageWidth="850" pageHeight="1100" math="0" shadow="0">
      <root>
        <mxCell id="0" />
        <mxCell id="1" parent="0" />
        <mxCell id="MlbkXNLpt9Xtt3pzgXLe-1" style="edgeStyle=orthogonalEdgeStyle;rounded=0;orthogonalLoop=1;jettySize=auto;html=1;entryX=0;entryY=0.5;entryDx=0;entryDy=0;entryPerimeter=0;" edge="1" parent="1" source="MlbkXNLpt9Xtt3pzgXLe-2" target="MlbkXNLpt9Xtt3pzgXLe-8">
          <mxGeometry relative="1" as="geometry" />
        </mxCell>
        <mxCell id="MlbkXNLpt9Xtt3pzgXLe-2" value="" style="points=[[0.145,0.145,0],[0.5,0,0],[0.855,0.145,0],[1,0.5,0],[0.855,0.855,0],[0.5,1,0],[0.145,0.855,0],[0,0.5,0]];shape=mxgraph.bpmn.event;html=1;verticalLabelPosition=bottom;labelBackgroundColor=#ffffff;verticalAlign=top;align=center;perimeter=ellipsePerimeter;outlineConnect=0;aspect=fixed;outline=standard;symbol=general;" vertex="1" parent="1">
          <mxGeometry x="50" y="360" width="50" height="50" as="geometry" />
        </mxCell>
        <mxCell id="MlbkXNLpt9Xtt3pzgXLe-3" value="Nhận thông tin &lt;br&gt;đăng ký học là rein" style="text;html=1;align=center;verticalAlign=middle;resizable=0;points=[];autosize=1;strokeColor=none;fillColor=none;" vertex="1" parent="1">
          <mxGeometry x="15" y="420" width="120" height="40" as="geometry" />
        </mxCell>
        <mxCell id="MlbkXNLpt9Xtt3pzgXLe-4" style="edgeStyle=orthogonalEdgeStyle;rounded=0;orthogonalLoop=1;jettySize=auto;html=1;entryX=0;entryY=0.5;entryDx=0;entryDy=0;entryPerimeter=0;" edge="1" parent="1" source="MlbkXNLpt9Xtt3pzgXLe-8" target="MlbkXNLpt9Xtt3pzgXLe-11">
          <mxGeometry relative="1" as="geometry" />
        </mxCell>
        <mxCell id="MlbkXNLpt9Xtt3pzgXLe-5" value="Chính xác" style="edgeLabel;html=1;align=center;verticalAlign=middle;resizable=0;points=[];" vertex="1" connectable="0" parent="MlbkXNLpt9Xtt3pzgXLe-4">
          <mxGeometry x="-0.2" y="1" relative="1" as="geometry">
            <mxPoint as="offset" />
          </mxGeometry>
        </mxCell>
        <mxCell id="MlbkXNLpt9Xtt3pzgXLe-6" style="edgeStyle=orthogonalEdgeStyle;rounded=0;orthogonalLoop=1;jettySize=auto;html=1;entryX=0.5;entryY=0;entryDx=0;entryDy=0;entryPerimeter=0;" edge="1" parent="1" source="MlbkXNLpt9Xtt3pzgXLe-8" target="MlbkXNLpt9Xtt3pzgXLe-2">
          <mxGeometry relative="1" as="geometry">
            <Array as="points">
              <mxPoint x="225" y="270" />
              <mxPoint x="75" y="270" />
            </Array>
          </mxGeometry>
        </mxCell>
        <mxCell id="MlbkXNLpt9Xtt3pzgXLe-7" value="Thông tin chưa chính xác" style="edgeLabel;html=1;align=center;verticalAlign=middle;resizable=0;points=[];" vertex="1" connectable="0" parent="MlbkXNLpt9Xtt3pzgXLe-6">
          <mxGeometry x="-0.6061" y="-1" relative="1" as="geometry">
            <mxPoint as="offset" />
          </mxGeometry>
        </mxCell>
        <mxCell id="MlbkXNLpt9Xtt3pzgXLe-8" value="Kiểm tra thông tin trên TMS" style="points=[[0.25,0.25,0],[0.5,0,0],[0.75,0.25,0],[1,0.5,0],[0.75,0.75,0],[0.5,1,0],[0.25,0.75,0],[0,0.5,0]];shape=mxgraph.bpmn.gateway2;html=1;verticalLabelPosition=bottom;labelBackgroundColor=#ffffff;verticalAlign=top;align=center;perimeter=rhombusPerimeter;outlineConnect=0;outline=none;symbol=none;" vertex="1" parent="1">
          <mxGeometry x="200" y="360" width="50" height="50" as="geometry" />
        </mxCell>
        <mxCell id="MlbkXNLpt9Xtt3pzgXLe-9" value="Chưa có" style="edgeStyle=orthogonalEdgeStyle;rounded=0;orthogonalLoop=1;jettySize=auto;html=1;entryX=0.5;entryY=1;entryDx=0;entryDy=0;entryPerimeter=0;" edge="1" parent="1" source="MlbkXNLpt9Xtt3pzgXLe-11" target="MlbkXNLpt9Xtt3pzgXLe-16">
          <mxGeometry relative="1" as="geometry" />
        </mxCell>
        <mxCell id="MlbkXNLpt9Xtt3pzgXLe-23" value="Đã có" style="edgeStyle=orthogonalEdgeStyle;rounded=0;orthogonalLoop=1;jettySize=auto;html=1;entryX=0.33;entryY=-0.05;entryDx=0;entryDy=0;entryPerimeter=0;" edge="1" parent="1" source="MlbkXNLpt9Xtt3pzgXLe-11" target="MlbkXNLpt9Xtt3pzgXLe-22">
          <mxGeometry relative="1" as="geometry" />
        </mxCell>
        <mxCell id="MlbkXNLpt9Xtt3pzgXLe-11" value="Kiểm tra tài khoản trên Litmos" style="points=[[0.25,0.25,0],[0.5,0,0],[0.75,0.25,0],[1,0.5,0],[0.75,0.75,0],[0.5,1,0],[0.25,0.75,0],[0,0.5,0]];shape=mxgraph.bpmn.gateway2;html=1;verticalLabelPosition=bottom;labelBackgroundColor=#ffffff;verticalAlign=top;align=center;perimeter=rhombusPerimeter;outlineConnect=0;outline=none;symbol=none;" vertex="1" parent="1">
          <mxGeometry x="375" y="360" width="50" height="50" as="geometry" />
        </mxCell>
        <mxCell id="MlbkXNLpt9Xtt3pzgXLe-15" style="edgeStyle=orthogonalEdgeStyle;rounded=0;orthogonalLoop=1;jettySize=auto;html=1;entryX=0.5;entryY=0;entryDx=0;entryDy=0;entryPerimeter=0;" edge="1" parent="1" source="MlbkXNLpt9Xtt3pzgXLe-16" target="MlbkXNLpt9Xtt3pzgXLe-21">
          <mxGeometry relative="1" as="geometry" />
        </mxCell>
        <mxCell id="MlbkXNLpt9Xtt3pzgXLe-16" value="- Tạo tài khoản&lt;br&gt;- gán team AD Candidate&lt;br&gt;- Cập nhật LitmosID" style="points=[[0.25,0,0],[0.5,0,0],[0.75,0,0],[1,0.25,0],[1,0.5,0],[1,0.75,0],[0.75,1,0],[0.5,1,0],[0.25,1,0],[0,0.75,0],[0,0.5,0],[0,0.25,0]];shape=mxgraph.bpmn.task;whiteSpace=wrap;rectStyle=rounded;size=10;html=1;taskMarker=abstract;" vertex="1" parent="1">
          <mxGeometry x="327.5" y="230" width="145" height="60" as="geometry" />
        </mxCell>
        <mxCell id="MlbkXNLpt9Xtt3pzgXLe-17" style="edgeStyle=orthogonalEdgeStyle;rounded=0;orthogonalLoop=1;jettySize=auto;html=1;entryX=0.5;entryY=1;entryDx=0;entryDy=0;entryPerimeter=0;" edge="1" parent="1" target="MlbkXNLpt9Xtt3pzgXLe-21">
          <mxGeometry relative="1" as="geometry">
            <mxPoint x="525" y="550" as="sourcePoint" />
          </mxGeometry>
        </mxCell>
        <mxCell id="MlbkXNLpt9Xtt3pzgXLe-21" value="Phản hồi email" style="points=[[0.145,0.145,0],[0.5,0,0],[0.855,0.145,0],[1,0.5,0],[0.855,0.855,0],[0.5,1,0],[0.145,0.855,0],[0,0.5,0]];shape=mxgraph.bpmn.event;html=1;verticalLabelPosition=bottom;labelBackgroundColor=#ffffff;verticalAlign=top;align=center;perimeter=ellipsePerimeter;outlineConnect=0;aspect=fixed;outline=end;symbol=terminate2;" vertex="1" parent="1">
          <mxGeometry x="950" y="360" width="50" height="50" as="geometry" />
        </mxCell>
        <mxCell id="MlbkXNLpt9Xtt3pzgXLe-22" value="- Đổi về SĐT (nếu đang là MSDL)&lt;br&gt;- Active (nếu đang là inactive)&lt;br&gt;- Cập nhật LitmosID (nếu cần)" style="points=[[0.25,0,0],[0.5,0,0],[0.75,0,0],[1,0.25,0],[1,0.5,0],[1,0.75,0],[0.75,1,0],[0.5,1,0],[0.25,1,0],[0,0.75,0],[0,0.5,0],[0,0.25,0]];shape=mxgraph.bpmn.task;whiteSpace=wrap;rectStyle=rounded;size=10;html=1;taskMarker=abstract;" vertex="1" parent="1">
          <mxGeometry x="327.5" y="520" width="222.5" height="60" as="geometry" />
        </mxCell>
      </root>
    </mxGraphModel>
  </diagram>
</mxfile>
